<svg width="24" height="24" viewBox="0 0 24 24" fill="none" xmlns="http://www.w3.org/2000/svg">
<path d="M16.7227 0C20.6768 0 23.333 2.77494 23.333 6.90332V16.4307C23.3329 20.5589 20.6769 23.333 16.7217 23.333H6.61035C2.65635 23.3329 7.3428e-05 20.5589 0 16.4307V6.90332C0 2.77501 2.65629 9.12894e-05 6.61035 0H16.7227ZM18.0098 12.3086C16.7594 11.5286 15.7939 12.624 15.5332 12.9746C15.2821 13.3129 15.0655 13.6863 14.8379 14.0596C14.2819 14.9805 13.6445 16.0426 12.542 16.6602C10.9399 17.547 9.72274 16.7295 8.84766 16.1348C8.51956 15.9135 8.20037 15.7041 7.88281 15.5645C7.09918 15.2262 6.39402 15.6114 5.34766 16.9404C4.79864 17.6351 4.25351 18.3235 3.70215 19.0098C3.37249 19.4203 3.45185 20.0536 3.89648 20.3281C4.60615 20.765 5.47203 21 6.4502 21H16.2822C16.837 21 17.3937 20.9243 17.9238 20.751C19.1177 20.3609 20.0655 19.4676 20.5605 18.2881C20.9781 17.2961 21.1815 16.0915 20.791 15.0898C20.6609 14.7577 20.4655 14.4478 20.1924 14.1758C19.4759 13.4645 18.8059 12.7997 18.0098 12.3086ZM7.58203 4.66699C5.97361 4.66699 4.66699 5.976 4.66699 7.58398C4.66731 9.1917 5.97381 10.5 7.58203 10.5C9.18881 10.4997 10.4967 9.1915 10.4971 7.58398C10.4971 5.9762 9.18901 4.66732 7.58203 4.66699Z" fill="#04332D"/>
</svg>
